<svg width="267" height="51" xmlns="http://www.w3.org/2000/svg">
 <mask id="a">
  <path id="svg_1" fill-rule="evenodd" fill="#fff" d="m0,103.8375l278.08385,0l0,-103.78778l-278.08385,0l0,103.78778z"/>
 </mask>

 <g>
  <title>Layer 1</title>
  <g id="svg_2" fill-rule="evenodd" fill="none">
   <path id="svg_3" fill="#e62b1e" d="m3.65852,44.70217l-2.21335,-3.18971l2.10922,0l1.18462,1.75763l1.17176,-1.75763l2.04399,0l-2.21306,3.15052l2.48655,3.5802l-2.10893,0l-1.40634,-2.12179l-1.40605,2.12179l-2.07002,0l2.42161,-3.54101z"/>
   <path id="svg_4" fill="#000" d="m10.41468,47.04568l6.57482,0l0,-1.39318l-6.57482,0l0,1.39318zm0,-2.78636l6.57482,0l0,-1.39317l-6.57482,0l0,1.39317z"/>
   <path id="svg_5" fill="#000" d="m20.17863,48.24347l1.8486,0l0,-6.73101l-1.8486,0l0,6.73101zm0,-7.7726l1.8486,0l0,-1.52335l-1.8486,0l0,1.52335z"/>
   <g id="svg_6">
    <g id="svg_7" fill="#000">
     <path id="svg_8" d="m23.22475,41.51237l1.75763,0l0,0.93746l0.0392,0c0.46858,-0.75523 1.27559,-1.11969 2.05686,-1.11969c1.96589,0 2.46051,1.10653 2.46051,2.7729l0,4.14034l-1.8486,0l0,-3.80162c0,-1.10682 -0.32555,-1.6535 -1.18463,-1.6535c-1.00239,0 -1.43208,0.55984 -1.43208,1.92699l0,3.52813l-1.84889,0l0,-6.73101z"/>
     <path id="svg_9" d="m33.87386,42.72323c-1.21095,0 -1.62747,1.0416 -1.62747,2.14812c0,1.05447 0.48174,2.16099 1.62747,2.16099c1.22382,0 1.58827,-1.06733 1.58827,-2.17415c0,-1.09336 -0.39049,-2.13496 -1.58827,-2.13496zm1.6143,4.66099l-0.02603,0c-0.42968,0.72891 -1.18462,1.0413 -2.04399,1.0413c-2.03083,0 -3.02035,-1.74447 -3.02035,-3.60623c0,-1.8097 1.00239,-3.48923 2.98145,-3.48923c0.79384,0 1.57511,0.33871 2.00479,1.00269l-0.01287,0l0.02604,0l0,-3.38511l1.8486,0l0,9.29565l-1.75764,0l0,-0.85907z"/>
     <path id="svg_10" d="m42.90851,44.15531c-0.16936,-0.93746 -0.57272,-1.43208 -1.47128,-1.43208c-1.17175,0 -1.51017,0.91143 -1.53621,1.43208l3.00749,0zm-3.00749,1.17176c0.05207,1.17175 0.62478,1.70527 1.65351,1.70527c0.74207,0 1.34111,-0.45542 1.45811,-0.87223l1.62747,0c-0.52094,1.58857 -1.62747,2.26541 -3.15081,2.26541c-2.12209,0 -3.43688,-1.45811 -3.43688,-3.541c0,-2.01825 1.39289,-3.55446 3.43688,-3.55446c2.29144,0 3.39826,1.92699 3.26781,3.99701l-4.85609,0z"/>
     <path id="svg_11" d="m50.58921,44.89742c0,-1.06763 -0.42968,-2.17416 -1.61431,-2.17416c-1.21066,0 -1.60144,1.0805 -1.60144,2.17416c0,1.09365 0.41682,2.13495 1.61431,2.13495c1.21095,0 1.60144,-1.0413 1.60144,-2.13495zm-4.99941,-3.38511l1.75763,0l0,0.85937l0.02603,0c0.44285,-0.71604 1.17176,-1.04159 2.00509,-1.04159c2.10893,0 3.05955,1.70556 3.05955,3.61939c0,1.79654 -0.98953,3.47607 -2.95542,3.47607c-0.8073,0 -1.5754,-0.35158 -2.01796,-1.01556l-0.02603,0l0,3.20288l-1.84889,0l0,-9.10056z"/>
     <path id="svg_12" d="m57.81431,44.15531c-0.16936,-0.93746 -0.57272,-1.43208 -1.47128,-1.43208c-1.17175,0 -1.51017,0.91143 -1.53621,1.43208l3.00749,0zm-3.00749,1.17176c0.05207,1.17175 0.62478,1.70527 1.65351,1.70527c0.74207,0 1.34111,-0.45542 1.45811,-0.87223l1.62747,0c-0.52094,1.58857 -1.62747,2.26541 -3.15081,2.26541c-2.12209,0 -3.43688,-1.45811 -3.43688,-3.541c0,-2.01825 1.39289,-3.55446 3.43688,-3.55446c2.29144,0 3.39826,1.92699 3.26781,3.99701l-4.85609,0z"/>
     <path id="svg_13" d="m60.49566,41.51237l1.75763,0l0,0.93746l0.03919,0c0.46859,-0.75523 1.2756,-1.11969 2.05686,-1.11969c1.9659,0 2.46051,1.10653 2.46051,2.7729l0,4.14034l-1.8486,0l0,-3.80162c0,-1.10682 -0.32555,-1.6535 -1.18462,-1.6535c-1.0024,0 -1.43208,0.55984 -1.43208,1.92699l0,3.52813l-1.84889,0l0,-6.73101z"/>
     <path id="svg_14" d="m71.14476,42.72323c-1.21095,0 -1.62747,1.0416 -1.62747,2.14812c0,1.05447 0.48175,2.16099 1.62747,2.16099c1.22382,0 1.58828,-1.06733 1.58828,-2.17415c0,-1.09336 -0.39049,-2.13496 -1.58828,-2.13496zm1.61431,4.66099l-0.02603,0c-0.42968,0.72891 -1.18463,1.0413 -2.04399,1.0413c-2.03083,0 -3.02036,-1.74447 -3.02036,-3.60623c0,-1.8097 1.0024,-3.48923 2.98146,-3.48923c0.79384,0 1.57511,0.33871 2.00479,1.00269l-0.01287,0l0.02603,0l0,-3.38511l1.8486,0l0,9.29565l-1.75763,0l0,-0.85907z"/>
     <path id="svg_15" d="m80.17942,44.15531c-0.16936,-0.93746 -0.57272,-1.43208 -1.47128,-1.43208c-1.17175,0 -1.51018,0.91143 -1.53621,1.43208l3.00749,0zm-3.00749,1.17176c0.05207,1.17175 0.62478,1.70527 1.6535,1.70527c0.74208,0 1.34112,-0.45542 1.45812,-0.87223l1.62747,0c-0.52095,1.58857 -1.62747,2.26541 -3.15081,2.26541c-2.12209,0 -3.43688,-1.45811 -3.43688,-3.541c0,-2.01825 1.39289,-3.55446 3.43688,-3.55446c2.29144,0 3.39826,1.92699 3.26781,3.99701l-4.85609,0z"/>
     <path id="svg_16" d="m82.86076,41.51237l1.75764,0l0,0.93746l0.03919,0c0.46859,-0.75523 1.27559,-1.11969 2.05686,-1.11969c1.96589,0 2.46051,1.10653 2.46051,2.7729l0,4.14034l-1.8486,0l0,-3.80162c0,-1.10682 -0.32555,-1.6535 -1.18462,-1.6535c-1.0024,0 -1.43208,0.55984 -1.43208,1.92699l0,3.52813l-1.8489,0l0,-6.73101z"/>
     <path id="svg_17" d="m92.66367,41.51237l1.35398,0l0,1.23698l-1.35398,0l0,3.33275c0,0.62507 0.15619,0.78097 0.78097,0.78097c0.19539,0 0.37762,-0.01287 0.57301,-0.05177l0,1.44495c-0.31239,0.05207 -0.71604,0.06523 -1.08049,0.06523c-1.13286,0 -2.12239,-0.26033 -2.12239,-1.60144l0,-3.97069l-1.11939,0l0,-1.23698l1.11939,0l0,-2.01796l1.8489,0l0,2.01796z"/>
     <path id="svg_18" mask="url(#a)" d="m94.69417,48.24318l1.8486,0l0,-9.29565l-1.8486,0l0,9.29565z"/>
     <path id="svg_19" mask="url(#a)" d="m101.06032,49.08953c-0.40365,1.08078 -1.04159,1.52334 -2.31748,1.52334c-0.37732,0 -0.75494,-0.02604 -1.13256,-0.06523l0,-1.52334c0.35159,0.02632 0.71604,0.0781 1.0805,0.06523c0.63794,-0.06523 0.8462,-0.72921 0.63794,-1.26273l-2.36954,-6.31449l1.97905,0l1.52334,4.60893l0.02603,0l1.47099,-4.60893l1.91382,0l-2.81209,7.57722z"/>
     <path id="svg_20" mask="url(#a)" d="m110.86322,47.03246c1.26273,0 1.64034,-1.08049 1.64034,-2.14812c0,-1.08049 -0.37761,-2.16099 -1.64034,-2.16099c-1.24985,0 -1.62747,1.0805 -1.62747,2.16099c0,1.06763 0.37762,2.14812 1.62747,2.14812m0,-5.70229c2.12209,0 3.48923,1.40605 3.48923,3.55417c0,2.13525 -1.36714,3.5413 -3.48923,3.5413c-2.10922,0 -3.47607,-1.40605 -3.47607,-3.5413c0,-2.14812 1.36685,-3.55417 3.47607,-3.55417"/>
     <path id="svg_21" mask="url(#a)" d="m115.02863,41.51237l1.75763,0l0,1.24985l0.02603,0c0.33842,-0.8462 1.24985,-1.43208 2.14812,-1.43208c0.13017,0 0.28636,0.02604 0.40365,0.06523l0,1.71844c-0.16936,-0.0392 -0.44255,-0.06523 -0.66397,-0.06523c-1.35399,0 -1.82257,0.97637 -1.82257,2.16128l0,3.03352l-1.84889,0l0,-6.73101z"/>
     <path id="svg_22" mask="url(#a)" d="m124.54529,44.79329c0,-1.09366 -0.37762,-2.07003 -1.5754,-2.07003c-1.0413,0 -1.49702,0.91143 -1.49702,1.91383c0,0.9632 0.36446,2.01796 1.49702,2.01796c1.05475,0 1.5754,-0.89856 1.5754,-1.86176zm1.75763,3.02035c0,1.10653 -0.39078,2.98145 -3.48923,2.98145c-1.32795,0 -2.87703,-0.62478 -2.96829,-2.16128l1.83573,0c0.16936,0.69001 0.72891,0.92459 1.38002,0.92459c1.02843,0 1.49701,-0.70317 1.48414,-1.66666l0,-0.8854l-0.02603,0c-0.40365,0.70317 -1.21095,1.04159 -2.01796,1.04159c-2.01796,0 -2.87732,-1.53621 -2.87732,-3.38481c0,-1.74476 1.00269,-3.33303 2.89048,-3.33303c0.88511,0 1.56195,0.29952 2.0048,1.08049l0.02603,0l0,-0.89827l1.75763,0l0,6.30133z"/>
     <path id="svg_23" mask="url(#a)" d="m131.45791,44.94939c-0.31239,0.27349 -0.96349,0.28636 -1.53621,0.39049c-0.573,0.11729 -1.09365,0.31268 -1.09365,0.98953c0,0.69001 0.53381,0.85936 1.13256,0.85936c1.44524,0 1.4973,-1.14572 1.4973,-1.54937l0,-0.69001zm-4.2702,-1.36685c0.10413,-1.7316 1.65321,-2.25254 3.16338,-2.25254c1.34112,0 2.95542,0.29952 2.95542,1.91383l0,3.50239c0,0.61162 0.06523,1.22382 0.23459,1.49702l-1.87493,0c-0.06522,-0.20826 -0.117,-0.42969 -0.13016,-0.65082c-0.58588,0.61191 -1.44524,0.83304 -2.26541,0.83304c-1.27589,0 -2.29145,-0.63765 -2.29145,-2.01795c0,-1.52305 1.14573,-1.8878 2.29145,-2.04399c1.13285,-0.16936 2.18731,-0.13017 2.18731,-0.88511c0,-0.79443 -0.54697,-0.91143 -1.19778,-0.91143c-0.70317,0 -1.15889,0.28636 -1.22382,1.01556l-1.8486,0z"/>
     <path id="svg_24" mask="url(#a)" d="m134.47774,41.51237l1.75764,0l0,0.93746l0.03919,0c0.46859,-0.75523 1.27559,-1.11969 2.05686,-1.11969c1.96589,0 2.46051,1.10653 2.46051,2.7729l0,4.14034l-1.8486,0l0,-3.80162c0,-1.10682 -0.32555,-1.6535 -1.18463,-1.6535c-1.00239,0 -1.43208,0.55984 -1.43208,1.92699l0,3.52813l-1.84889,0l0,-6.73101z"/>
     <path id="svg_25" mask="url(#a)" d="m141.72876,48.24347l1.8486,0l0,-6.73101l-1.8486,0l0,6.73101zm0.00029,-7.7726l1.8486,0l0,-1.52334l-1.8486,0l0,1.52334z"/>
     <path id="svg_26" mask="url(#a)" d="m144.35845,46.85023l3.5021,-3.94465l-3.24148,0l0,-1.39318l5.67596,0l0,1.39318l-3.50181,3.94465l3.74927,0l0,1.39318l-6.18404,0l0,-1.39318z"/>
     <path id="svg_27" mask="url(#a)" d="m155.80181,44.15531c-0.16906,-0.93746 -0.57271,-1.43208 -1.47098,-1.43208c-1.17175,0 -1.51018,0.91143 -1.53621,1.43208l3.00719,0zm-3.00719,1.17176c0.05177,1.17175 0.62478,1.70527 1.65321,1.70527c0.74207,0 1.34111,-0.45542 1.45811,-0.87223l1.62747,0c-0.52065,1.58857 -1.62747,2.26541 -3.15081,2.26541c-2.12179,0 -3.43687,-1.45811 -3.43687,-3.541c0,-2.01825 1.39318,-3.55446 3.43687,-3.55446c2.29145,0 3.39827,1.92699 3.2681,3.99701l-4.85608,0z"/>
     <path id="svg_28" mask="url(#a)" d="m161.67322,42.72323c-1.21095,0 -1.62717,1.0416 -1.62717,2.14812c0,1.05447 0.48145,2.16099 1.62717,2.16099c1.22382,0 1.58828,-1.06733 1.58828,-2.17415c0,-1.09336 -0.39049,-2.13496 -1.58828,-2.13496zm1.6146,4.66099l-0.02632,0c-0.42968,0.72891 -1.18463,1.0413 -2.04399,1.0413c-2.03112,0 -3.02065,-1.74447 -3.02065,-3.60623c0,-1.8097 1.00269,-3.48923 2.98175,-3.48923c0.79384,0 1.57511,0.33871 2.00479,1.00269l-0.01316,0l0.02603,0l0,-3.38511l1.84889,0l0,9.29565l-1.75734,0l0,-0.85907z"/>
     <path id="svg_29" mask="url(#a)" d="m171.7882,40.66617l-2.78578,0l0,-1.71844l7.61612,0l0,1.71844l-2.78635,0l0,7.57721l-2.04399,0l0,-7.57721z"/>
     <path id="svg_30" mask="url(#a)" d="m177.42482,38.94758l6.95243,0l0,1.71844l-4.90844,0l0,1.99222l4.50479,0l0,1.58828l-4.50479,0l0,2.27828l5.01228,0l0,1.71844l-7.05627,0l0,-9.29566z"/>
     <path id="svg_31" mask="url(#a)" d="m187.38409,46.52474l1.82257,0c1.18462,0 2.31748,-0.72891 2.31748,-2.78606c0,-1.87493 -0.65082,-3.07242 -2.68223,-3.07242l-1.45782,0l0,5.85848zm-2.04399,-7.57721l4.00988,0c2.40845,0 4.21815,1.51047 4.21815,4.59605c0,2.6948 -1.38002,4.6996 -4.21815,4.6996l-4.00988,0l0,-9.29565z"/>
     <path id="svg_32" mask="url(#a)" d="m202.42014,44.15531c-0.16906,-0.93746 -0.57271,-1.43208 -1.47098,-1.43208c-1.17176,0 -1.51018,0.91143 -1.53621,1.43208l3.00719,0zm-3.00719,1.17176c0.05177,1.17175 0.62478,1.70527 1.65321,1.70527c0.74207,0 1.34111,-0.45542 1.45811,-0.87223l1.62747,0c-0.52065,1.58857 -1.62747,2.26541 -3.15081,2.26541c-2.12179,0 -3.43687,-1.45811 -3.43687,-3.541c0,-2.01825 1.39317,-3.55446 3.43687,-3.55446c2.29145,0 3.39827,1.92699 3.2681,3.99701l-4.85608,0z"/>
     <path id="svg_33" mask="url(#a)" d="m208.56492,48.24332l-2.05715,0l-2.30431,-6.73101l1.93986,0l1.41891,4.59576l0.02604,0l1.41921,-4.59576l1.83573,0l-2.27829,6.73101z"/>
     <path id="svg_34" mask="url(#a)" d="m215.62064,44.15531c-0.16907,-0.93746 -0.57272,-1.43208 -1.47098,-1.43208c-1.17176,0 -1.51018,0.91143 -1.53621,1.43208l3.00719,0zm-3.00719,1.17176c0.05177,1.17175 0.62477,1.70527 1.65321,1.70527c0.74207,0 1.34111,-0.45542 1.45811,-0.87223l1.62747,0c-0.52065,1.58857 -1.62747,2.26541 -3.15081,2.26541c-2.1218,0 -3.43688,-1.45811 -3.43688,-3.541c0,-2.01825 1.39318,-3.55446 3.43688,-3.55446c2.29144,0 3.39826,1.92699 3.26781,3.99701l-4.85579,0z"/>
     <path id="svg_35" mask="url(#a)" d="m218.30225,41.51237l1.75763,0l0,0.93746l0.0392,0c0.46858,-0.75523 1.27588,-1.11969 2.05686,-1.11969c1.96589,0 2.4608,1.10653 2.4608,2.7729l0,4.14034l-1.8486,0l0,-3.80162c0,-1.10682 -0.32585,-1.6535 -1.18492,-1.6535c-1.00269,0 -1.43237,0.55984 -1.43237,1.92699l0,3.52813l-1.8486,0l0,-6.73101z"/>
     <path id="svg_36" mask="url(#a)" d="m228.10501,41.51237l1.35398,0l0,1.23698l-1.35398,0l0,3.33275c0,0.62507 0.15619,0.78097 0.78126,0.78097c0.19539,0 0.37762,-0.01287 0.57272,-0.05177l0,1.44495c-0.3121,0.05207 -0.71575,0.06523 -1.0805,0.06523c-1.13285,0 -2.12208,-0.26033 -2.12208,-1.60144l0,-3.97069l-1.11969,0l0,-1.23698l1.11969,0l0,-2.01796l1.8486,0l0,2.01796z"/>
    </g>
    <path id="svg_37" mask="url(#a)" fill="#e62b1e" d="m9.23076,8.19367l-8.67409,0l0,-7.9329l26.8749,0l0,7.9329l-8.67087,0l0,23.01828l-9.52994,0l0,-23.01828z"/>
    <path id="svg_38" mask="url(#a)" fill="#e62b1e" d="m28.91265,0.26074l26.08866,0l0,7.9329l-16.55258,0l0,3.8569l16.55258,0l0,7.37188l-16.55258,0l0,3.8572l16.55697,0l0,7.9323l-26.09305,0l0,-30.95118z"/>
    <path id="svg_39" mask="url(#a)" fill="#e62b1e" d="m66.1417,23.27956l3.72937,0c5.94038,0 6.80882,-4.81338 6.80882,-7.72083c0,-1.94717 -0.61016,-7.36515 -7.50321,-7.36515l-3.03498,0l0,15.08598zm-9.5355,-23.01887l15.64875,0c10.31559,0 13.96102,7.62986 13.96102,15.43025c0,9.4963 -5.02866,15.52122 -15.82308,15.52122l-13.78669,0l0,-30.95147z"/>
    <path id="svg_40" mask="url(#a)" fill="#e62b1e" d="m99.91831,19.2848l-2.90891,-4.82391l-2.83696,4.82391l-6.98665,0l6.63273,-9.75371l-6.38674,-9.32987l6.98929,0l2.58833,4.61185l2.66233,-4.61185l6.98724,0l-6.38498,9.32987l6.63302,9.75371l-6.9887,0z"/>
    <text id="svg_41" x="-14" y="-10.6166" mask="url(#a)" font-size="42.96963" font-family="Helvetica" fill="#000">
     <tspan id="svg_42" y="30.0045" x="114.48031">W</tspan>
     <tspan id="svg_43" y="30.0045" x="151.88222">arsaw</tspan>
    </text>
   </g>
  </g>
 </g>
</svg>